<?xml version="1.0" encoding="utf-8"?>
<!-- Generator: Adobe Illustrator 25.2.1, SVG Export Plug-In . SVG Version: 6.00 Build 0)  -->
<svg version="1.1" id="_kwqfX3V0RxEpPlilS1Whw" xmlns="http://www.w3.org/2000/svg" xmlns:xlink="http://www.w3.org/1999/xlink"
	 x="0px" y="0px" viewBox="0 0 512 175" style="enable-background:new 0 0 512 175;" xml:space="preserve">
<style type="text/css">
	.st0{fill:#E78200;}
	.st1{fill:#296575;}
	.st2{fill:#273033;}
</style>
<g id="_ege1l9if9_2" transform="matrix(1.1363588571548462, 0, 0, 1.1363588571548462, -36.27946853637695, -130.91261291503906)">
	<path id="_tamAdce4XrzS1oxV2mbQ9" class="st0" d="M255.2,157.8c1.4,0,2.5-1.1,2.5-2.5v-17.6c0-1.4-1.1-2.5-2.5-2.5
		c-1.4,0-2.5,1.1-2.5,2.5v17.6C252.7,156.7,253.8,157.8,255.2,157.8z"/>
	<path id="_op_w3Ej77hmiAX9LGTkdT" class="st0" d="M227.9,167.9c0.5,0.5,1.1,0.7,1.7,0.7c0.6,0,1.3-0.2,1.7-0.7c1-1,1-2.5,0-3.5
		L218.9,152c-1-1-2.5-1-3.5,0c-1,1-1,2.5,0,3.5L227.9,167.9z"/>
	<path id="_7HGTzUtNndc52IHGcGXG-" class="st0" d="M282.1,168.6c0.6,0,1.3-0.2,1.7-0.7l12.4-12.4c1-1,1-2.5,0-3.5c-1-1-2.5-1-3.5,0
		l-12.4,12.4c-1,1-1,2.5,0,3.5C280.9,168.3,281.5,168.6,282.1,168.6z"/>
	<path id="_Nxl0LqWwq9h_543uaTaq7" class="st1" d="M270.4,169c-4.1-2.4-8.9-3.7-13.7-3.7c-4.8,0-9.5,1.3-13.6,3.7
		c-13,7.5-17.5,24.3-10,37.3l9.3,16.1v11.5c0,7.9,6.4,14.3,14.3,14.3c5.5,0,10.4-3.2,12.7-7.8c0.1-0.1,0.1-0.2,0.1-0.3
		c0.9-1.9,1.5-4,1.5-6.3v-11.5l9.3-16.1C287.9,193.2,283.4,176.5,270.4,169z M266.2,224.2v3.8l-18.9-2.7v-1.1L266.2,224.2
		L266.2,224.2z M247.3,233.9v-3.6l18.9,2.7v1c0,0.9-0.1,1.8-0.4,2.6L247.3,233.9z M248.8,239l14,2c-1.7,1.4-3.8,2.3-6.1,2.3
		C253.4,243.3,250.5,241.6,248.8,239z M276.1,203.8l-8.9,15.5h-3.3v-4.9l4.7-13.1c0.5-1.3-0.2-2.7-1.5-3.1c-1.3-0.5-2.7,0.2-3.1,1.5
		l-4.9,13.5c-0.1,0.3-0.1,0.5-0.1,0.8v5.3h-4.6V214c0-0.3,0-0.6-0.1-0.8l-4.9-13.5c-0.5-1.3-1.9-1.9-3.1-1.5
		c-1.3,0.5-1.9,1.9-1.5,3.1l4.7,13.1v4.9h-3.3l-8.9-15.5c-6.2-10.7-2.5-24.4,8.2-30.6c3.4-2,7.3-3,11.2-3c3.9,0,7.8,1,11.2,3
		C278.6,179.4,282.3,193.1,276.1,203.8z"/>
	<path id="_3OatPuvZdc2yhTrjFmUkP" class="st0" d="M265.1,175.2c-2.8-1.6-6.1-2.5-9.4-2.5c-1.4,0-2.5,1.1-2.5,2.5s1.1,2.5,2.5,2.5
		c2.4,0,4.8,0.6,6.9,1.9c4.2,2.4,6.9,7,6.9,11.9c0,1.3,1.1,2.4,2.5,2.4c0,0,0,0,0,0c1.4,0,2.4-1.1,2.4-2.5
		C274.5,184.7,270.9,178.5,265.1,175.2z"/>
</g>
<path id="_tImCtGDjpgG8wueh9K6qU" class="st2" d="M60,114V91.7c-0.8-0.6-1.9-1.2-3.3-1.8c-1.4-0.6-3-0.9-4.7-0.9l0,0
	c-1.8,0-3.4,0.3-4.6,1c-1.3,0.7-2.3,1.6-3.2,2.7c-0.8,1.2-1.4,2.5-1.8,4.1c-0.4,1.6-0.5,3.3-0.5,5.1l0,0c0,4.1,1,7.3,3.1,9.5
	s4.7,3.4,8.1,3.4l0,0c1.7,0,3.2-0.1,4.3-0.2S59.3,114.2,60,114L60,114z M60,85.8V68l6.3-1.1v51.6c-1.4,0.4-3.3,0.8-5.6,1.2
	c-2.3,0.4-4.9,0.6-7.8,0.6l0,0c-2.7,0-5.2-0.4-7.3-1.3c-2.2-0.9-4-2.1-5.6-3.7c-1.5-1.6-2.7-3.5-3.6-5.8c-0.8-2.3-1.3-4.8-1.3-7.7
	l0,0c0-2.7,0.4-5.2,1.1-7.5c0.7-2.3,1.7-4.2,3.1-5.8c1.4-1.6,3-2.9,5-3.8c2-0.9,4.2-1.4,6.7-1.4l0,0c2,0,3.8,0.3,5.4,0.8
	C58,84.8,59.2,85.3,60,85.8L60,85.8z M90.2,83.5L90.2,83.5c0.5,0,1.2,0,1.9,0.1c0.7,0.1,1.4,0.2,2.1,0.3c0.7,0.1,1.3,0.2,1.9,0.3
	c0.6,0.1,1,0.2,1.3,0.3l0,0L96.1,90c-0.5-0.2-1.3-0.4-2.5-0.6C92.5,89.1,91,89,89.2,89l0,0c-1.2,0-2.3,0.1-3.5,0.4
	c-1.2,0.2-1.9,0.4-2.3,0.5l0,0v29.6h-6.3V85.7c1.5-0.5,3.3-1.1,5.6-1.5C84.9,83.7,87.4,83.5,90.2,83.5z M115.3,115L115.3,115
	c1.5,0,2.8,0,4-0.1c1.2-0.1,2.1-0.2,2.9-0.4l0,0V104c-0.5-0.2-1.2-0.4-2.2-0.6c-1-0.2-2.2-0.2-3.7-0.2l0,0c-0.9,0-2,0.1-3,0.2
	c-1.1,0.1-2,0.4-2.9,0.8c-0.9,0.4-1.6,1-2.2,1.8c-0.6,0.7-0.9,1.7-0.9,3l0,0c0,2.3,0.7,3.8,2.2,4.7C110.8,114.5,112.8,115,115.3,115
	z M114.7,83.4L114.7,83.4c2.5,0,4.7,0.3,6.4,1c1.7,0.7,3.1,1.6,4.2,2.8c1.1,1.2,1.8,2.6,2.3,4.3c0.5,1.7,0.7,3.5,0.7,5.5l0,0v22
	c-0.5,0.1-1.3,0.2-2.3,0.4c-1,0.2-2.1,0.3-3.3,0.4c-1.2,0.1-2.5,0.3-4,0.4c-1.4,0.1-2.8,0.2-4.2,0.2l0,0c-2,0-3.8-0.2-5.5-0.6
	c-1.7-0.4-3.1-1.1-4.3-1.9c-1.2-0.9-2.2-2-2.8-3.5c-0.7-1.4-1-3.2-1-5.2l0,0c0-1.9,0.4-3.6,1.2-5c0.8-1.4,1.9-2.5,3.2-3.4
	c1.4-0.9,2.9-1.5,4.7-1.9c1.8-0.4,3.7-0.6,5.7-0.6l0,0c0.6,0,1.3,0,2,0.1c0.7,0.1,1.3,0.2,1.9,0.3c0.6,0.1,1.1,0.2,1.6,0.3
	c0.5,0.1,0.8,0.2,0.9,0.2l0,0v-1.8c0-1-0.1-2.1-0.3-3.1c-0.2-1-0.6-1.9-1.2-2.7c-0.6-0.8-1.4-1.4-2.4-1.9c-1-0.5-2.3-0.7-4-0.7l0,0
	c-2.1,0-3.9,0.1-5.5,0.4c-1.6,0.3-2.7,0.6-3.5,0.9l0,0l-0.7-5.2c0.8-0.4,2.2-0.7,4.1-1.1C110.4,83.5,112.5,83.4,114.7,83.4z
	 M152.5,66.9L152.5,66.9c1.9,0,3.4,0.1,4.8,0.4c1.3,0.3,2.3,0.5,2.8,0.7l0,0l-1.2,5.4c-0.5-0.3-1.3-0.5-2.3-0.8
	c-1-0.2-2.2-0.4-3.7-0.4l0,0c-2.9,0-5,0.8-6.2,2.4c-1.2,1.6-1.8,3.8-1.8,6.5l0,0v3.1h13.6v5.3H145v30h-6.3V81c0-4.5,1.1-8,3.3-10.5
	C144.3,68.1,147.7,66.9,152.5,66.9z M170.8,73.3v10.9h13.4v5.3h-13.4v16.3c0,1.8,0.1,3.2,0.4,4.4s0.7,2.1,1.2,2.7
	c0.5,0.7,1.2,1.1,2,1.4s1.8,0.4,2.8,0.4l0,0c1.9,0,3.4-0.2,4.6-0.6s2-0.7,2.4-0.9l0,0l1.2,5.2c-0.6,0.3-1.7,0.7-3.3,1.2
	c-1.6,0.5-3.4,0.7-5.4,0.7l0,0c-2.4,0-4.4-0.3-5.9-0.9c-1.6-0.6-2.8-1.5-3.8-2.7c-0.9-1.2-1.6-2.7-2-4.5c-0.4-1.8-0.6-3.9-0.6-6.2
	l0,0V74.4L170.8,73.3z M200.4,115L200.4,115c2.6,0,4.5-0.3,5.7-1s1.9-1.8,1.9-3.3l0,0c0-1.5-0.6-2.8-1.8-3.7c-1.2-0.9-3.2-1.9-6-3.1
	l0,0c-1.4-0.5-2.7-1.1-3.9-1.7s-2.3-1.2-3.2-2c-0.9-0.8-1.6-1.7-2.2-2.8c-0.5-1.1-0.8-2.4-0.8-4l0,0c0-3.1,1.2-5.6,3.5-7.4
	c2.3-1.8,5.4-2.7,9.4-2.7l0,0c1,0,2,0.1,3,0.2c1,0.1,1.9,0.2,2.8,0.4c0.9,0.2,1.6,0.3,2.3,0.5c0.7,0.2,1.2,0.3,1.5,0.5l0,0l-1.2,5.4
	c-0.7-0.4-1.7-0.7-3.2-1.1s-3.2-0.6-5.2-0.6l0,0c-1.8,0-3.3,0.4-4.6,1.1c-1.3,0.7-2,1.8-2,3.3l0,0c0,0.8,0.1,1.4,0.4,2
	c0.3,0.6,0.7,1.1,1.4,1.6s1.4,0.9,2.3,1.3c0.9,0.4,2,0.8,3.3,1.3l0,0c1.7,0.6,3.2,1.3,4.5,1.9c1.3,0.6,2.4,1.3,3.4,2.1
	s1.6,1.8,2.1,3c0.5,1.2,0.7,2.6,0.7,4.2l0,0c0,3.3-1.2,5.7-3.6,7.4c-2.4,1.7-5.9,2.5-10.3,2.5l0,0c-3.1,0-5.6-0.3-7.3-0.8
	c-1.8-0.5-3-0.9-3.6-1.2l0,0l1.2-5.4c0.7,0.3,1.9,0.7,3.5,1.2C195.7,114.7,197.8,115,200.4,115z M314.5,66.9L314.5,66.9
	c1.9,0,3.4,0.1,4.8,0.4c1.3,0.3,2.3,0.5,2.8,0.7l0,0l-1.2,5.4c-0.5-0.3-1.3-0.5-2.3-0.8c-1-0.2-2.2-0.4-3.7-0.4l0,0
	c-2.9,0-5,0.8-6.2,2.4c-1.2,1.6-1.8,3.8-1.8,6.5l0,0v3.1h13.6v5.3h-13.6v30h-6.3V81c0-4.5,1.1-8,3.3-10.5
	C306.3,68.1,309.8,66.9,314.5,66.9z M347.6,120.5L347.6,120.5c-3.3,0-6.3-0.5-9-1.6c-2.7-1.1-5-2.7-7-4.7c-1.9-2.1-3.4-4.6-4.5-7.7
	c-1.1-3.1-1.6-6.5-1.6-10.5l0,0c0-3.9,0.6-7.4,1.8-10.5c1.2-3.1,2.8-5.6,4.8-7.7c2-2.1,4.4-3.7,7.1-4.7c2.7-1.1,5.6-1.6,8.7-1.6l0,0
	c1.9,0,3.7,0.1,5.3,0.4c1.6,0.3,2.9,0.6,4.1,0.9c1.2,0.4,2.1,0.7,2.8,1.1c0.7,0.4,1.2,0.6,1.5,0.8l0,0l-1.9,5.4
	c-0.4-0.3-1-0.6-1.8-0.9c-0.8-0.3-1.6-0.6-2.6-0.9c-1-0.3-2-0.6-3.2-0.8s-2.3-0.3-3.5-0.3l0,0c-2.5,0-4.7,0.4-6.7,1.3
	s-3.7,2.1-5.1,3.7c-1.4,1.6-2.5,3.6-3.2,5.9c-0.7,2.3-1.1,4.9-1.1,7.8l0,0c0,2.8,0.3,5.4,1,7.7c0.7,2.3,1.6,4.3,3,5.9
	c1.3,1.7,3,2.9,4.9,3.8c2,0.9,4.3,1.4,6.9,1.4l0,0c3,0,5.5-0.3,7.5-0.9s3.5-1.2,4.5-1.7l0,0l1.7,5.4c-0.3,0.2-0.9,0.5-1.7,0.8
	c-0.8,0.3-1.8,0.7-3.1,1c-1.2,0.3-2.6,0.6-4.3,0.8C351.2,120.4,349.5,120.5,347.6,120.5z M399.1,101.9L399.1,101.9
	c0,2.8-0.4,5.3-1.2,7.6c-0.8,2.3-2,4.2-3.4,5.8s-3.2,2.9-5.3,3.8c-2,0.9-4.3,1.3-6.6,1.3l0,0c-2.4,0-4.6-0.4-6.6-1.3
	c-2-0.9-3.8-2.1-5.3-3.8s-2.6-3.6-3.4-5.8c-0.8-2.3-1.2-4.8-1.2-7.6l0,0c0-2.8,0.4-5.3,1.2-7.6c0.8-2.3,2-4.2,3.4-5.9
	c1.5-1.6,3.2-2.9,5.3-3.8c2-0.9,4.3-1.3,6.6-1.3l0,0c2.4,0,4.6,0.4,6.6,1.3c2,0.9,3.8,2.1,5.3,3.8c1.5,1.6,2.6,3.6,3.4,5.9
	C398.7,96.6,399.1,99.1,399.1,101.9z M392.5,101.9L392.5,101.9c0-4-0.9-7.1-2.7-9.5c-1.8-2.3-4.2-3.5-7.3-3.5l0,0
	c-3.1,0-5.5,1.2-7.3,3.5c-1.8,2.3-2.7,5.5-2.7,9.5l0,0c0,4,0.9,7.1,2.7,9.5c1.8,2.3,4.2,3.5,7.3,3.5l0,0c3.1,0,5.5-1.2,7.3-3.5
	C391.6,109,392.5,105.9,392.5,101.9z M430.8,114V91.7c-0.8-0.6-1.9-1.2-3.3-1.8c-1.4-0.6-3-0.9-4.7-0.9l0,0c-1.8,0-3.4,0.3-4.6,1
	c-1.3,0.7-2.3,1.6-3.2,2.7c-0.8,1.2-1.4,2.5-1.8,4.1s-0.5,3.3-0.5,5.1l0,0c0,4.1,1,7.3,3.1,9.5s4.7,3.4,8.1,3.4l0,0
	c1.7,0,3.2-0.1,4.3-0.2S430.2,114.2,430.8,114L430.8,114z M430.8,85.8V68l6.3-1.1v51.6c-1.4,0.4-3.3,0.8-5.6,1.2
	c-2.3,0.4-4.9,0.6-7.8,0.6l0,0c-2.7,0-5.2-0.4-7.3-1.3c-2.2-0.9-4-2.1-5.6-3.7s-2.7-3.5-3.6-5.8c-0.8-2.3-1.3-4.8-1.3-7.7l0,0
	c0-2.7,0.4-5.2,1.1-7.5c0.7-2.3,1.7-4.2,3.1-5.8c1.4-1.6,3-2.9,5-3.8c2-0.9,4.2-1.4,6.7-1.4l0,0c2,0,3.8,0.3,5.4,0.8
	C428.9,84.8,430,85.3,430.8,85.8L430.8,85.8z M446,101.9L446,101.9c0-3.1,0.5-5.8,1.4-8.2c0.9-2.3,2.1-4.3,3.6-5.8s3.2-2.7,5.2-3.5
	c1.9-0.8,3.9-1.2,6-1.2l0,0c4.7,0,8.4,1.5,10.9,4.4c2.5,3,3.8,7.5,3.8,13.5l0,0c0,0.3,0,0.6,0,1.1s0,0.8-0.1,1.2l0,0h-24.1
	c0.3,3.7,1.3,6.4,3.2,8.3c1.9,1.9,4.7,2.8,8.7,2.8l0,0c2.2,0,4.1-0.2,5.6-0.6c1.5-0.4,2.7-0.8,3.4-1.1l0,0l0.9,5.3
	c-0.8,0.4-2.1,0.8-4,1.3c-1.9,0.5-4.1,0.7-6.5,0.7l0,0c-3.1,0-5.7-0.5-8-1.4s-4.1-2.2-5.5-3.8c-1.4-1.6-2.5-3.6-3.2-5.8
	S446,104.6,446,101.9z M452.7,98.5h17.5c0-2.8-0.7-5.2-2.1-7c-1.5-1.8-3.5-2.7-6.1-2.7l0,0c-1.4,0-2.7,0.3-3.8,0.8
	c-1.1,0.6-2,1.3-2.8,2.2s-1.4,1.9-1.8,3.1C453.1,96.1,452.8,97.3,452.7,98.5L452.7,98.5z"/>
</svg>
