<svg xmlns="http://www.w3.org/2000/svg" width="512" height="512" viewBox="0 0 512 512" data-svgdocument="" id="_kwqfX3V0RxEpPlilS1Whw" class="fl-svgdocument" x="0" y="0" style="overflow: hidden;" xmlns:xlink="http://www.w3.org/1999/xlink">
  <defs id="__QLvkEjmGXon0gWiUgKDG" transform="matrix(1.1236610412597656, 0, 0, 1.1236610412597656, -19.446569442749023, -33.570411682128906)" />
  <g id="_ege1l9if9_2" transform="matrix(1.1363588571548462, 0, 0, 1.1363588571548462, -36.27946853637695, -130.91261291503906)">
    <path id="_tamAdce4XrzS1oxV2mbQ9" d="M49.999,22.348c1.104,0,2-0.896,2-2V6c0-1.104-0.896-2-2-2s-2,0.896-2,2v14.348C47.999,21.452,48.895,22.348,49.999,22.348z  " stroke="none" fill="#e78200" transform="matrix(1.225749135017395, 0, 0, 1.225749135017395, 193.8880615234375, 279.1187438964844)" />
    <path id="_op_w3Ej77hmiAX9LGTkdT" d="M27.175,30.629c0.391,0.391,0.902,0.586,1.414,0.586s1.023-0.195,1.414-0.586c0.781-0.781,0.781-2.047,0-2.828  L19.857,17.655c-0.781-0.781-2.047-0.781-2.828,0c-0.781,0.781-0.781,2.047,0,2.828L27.175,30.629z" stroke="none" fill="#e78200" transform="matrix(1.225749135017395, 0, 0, 1.225749135017395, 194.5681915283203, 279.0342712402344)" />
    <path id="_7HGTzUtNndc52IHGcGXG-" d="M71.408,31.217c0.512,0,1.023-0.195,1.414-0.586l10.145-10.146c0.781-0.781,0.781-2.047,0-2.829  c-0.781-0.78-2.047-0.781-2.828,0L69.994,27.803c-0.781,0.781-0.781,2.047,0,2.829C70.385,31.021,70.896,31.217,71.408,31.217z" stroke="none" fill="#e78200" transform="matrix(1.225749135017395, 0, 0, 1.225749135017395, 194.6124725341797, 279.0325927734375)" />
    <path id="_Nxl0LqWwq9h_543uaTaq7" d="M61.188,31.391c-3.379-1.95-7.222-2.98-11.154-2.98c-3.892,0-7.735,1.031-11.114,2.981  c-10.633,6.14-14.289,19.786-8.15,30.418l7.588,13.144v9.387c0,6.45,5.247,11.697,11.697,11.697c4.527,0,8.453-2.59,10.396-6.362  c0.043-0.073,0.077-0.15,0.11-0.229c0.754-1.545,1.189-3.274,1.189-5.106v-9.387l7.588-13.144  C75.478,51.176,71.821,37.531,61.188,31.391z M57.751,76.417v3.089l-15.394-2.188v-0.901H57.751z M42.357,84.318v-2.96l15.394,2.188  v0.794c0,0.737-0.11,1.447-0.305,2.123L42.357,84.318z M43.61,88.536l11.461,1.628c-1.349,1.164-3.1,1.872-5.017,1.872  C47.358,92.037,44.985,90.641,43.61,88.536z M65.874,59.81l-7.277,12.607h-2.673v-3.984l3.855-10.724  c0.374-1.04-0.166-2.185-1.205-2.559c-1.039-0.375-2.185,0.166-2.559,1.205l-3.974,11.052c-0.078,0.217-0.118,0.446-0.118,0.677  v4.333h-3.739v-4.333c0-0.23-0.04-0.459-0.118-0.677l-3.974-11.052c-0.373-1.04-1.519-1.58-2.559-1.205  c-1.039,0.374-1.579,1.519-1.205,2.559l3.855,10.724v3.984h-2.673L34.234,59.81c-5.036-8.723-2.037-19.917,6.686-24.954  c2.771-1.6,5.924-2.445,9.155-2.445c3.19,0,6.342,0.846,9.113,2.445C67.911,39.892,70.91,51.086,65.874,59.81z" stroke="none" fill="#296575" transform="matrix(1.225749135017395, 0, 0, 1.225749135017395, 195.3675537109375, 279.22882080078125)" />
    <path id="_3OatPuvZdc2yhTrjFmUkP" d="M57.711,37.413c-2.322-1.34-4.963-2.049-7.637-2.049c-1.104,0-2,0.896-2,2s0.896,2,2,2c1.973,0,3.922,0.523,5.637,1.513  c3.45,1.993,5.616,5.716,5.653,9.716c0.01,1.098,0.903,1.981,2,1.981c0.006,0,0.013,0,0.019,0c1.104-0.01,1.991-0.914,1.981-2.019  C65.314,45.146,62.382,40.11,57.711,37.413z" stroke="none" fill="#e78200" transform="matrix(1.225749135017395, 0, 0, 1.225749135017395, 194.40867614746094, 278.0606689453125)" />
  </g>
  <path id="_tImCtGDjpgG8wueh9K6qU" fill="#273033" transform="matrix(0.678297758102417, 0, 0, 0.678297758102417, 256.10174560546875, 288.5084533691406)" text="drafts     fCode" text-anchor="middle" font-size="100" letter-spacing="0" side="left" offset="0.5" dx="0" dy="0" space="preserve" href="" font-family="Ubuntu" font-scale="contain" x="0" y="0" data-fl-textpath="" d="M-289.15000000000003-8.1L-289.15000000000003-41Q-290.8500000000001-42.4 -294.05000000000007-43.7Q-297.25000000000006-45 -301.05000000000007-45L-301.05000000000007-45Q-305.05000000000007-45 -307.90000000000003-43.55Q-310.75000000000006-42.1 -312.55000000000007-39.55Q-314.3500000000001-37 -315.15000000000003-33.5Q-315.95000000000005-30 -315.95000000000005-26L-315.95000000000005-26Q-315.95000000000005-16.9 -311.45000000000005-11.95Q-306.95000000000005-7 -299.45000000000005-7L-299.45000000000005-7Q-295.65000000000003-7 -293.1000000000001-7.35Q-290.55000000000007-7.7 -289.15000000000003-8.1L-289.15000000000003-8.1ZM-289.15000000000003-49.7L-289.15000000000003-76L-279.8500000000001-77.6L-279.8500000000001-1.5Q-283.05000000000007-0.6 -288.05000000000007 0.3Q-293.05000000000007 1.2 -299.55000000000007 1.2L-299.55000000000007 1.2Q-305.55000000000007 1.2 -310.3500000000001-0.7Q-315.15000000000003-2.6 -318.55000000000007-6.1Q-321.95000000000005-9.6 -323.80000000000007-14.65Q-325.65000000000003-19.7 -325.65000000000003-26L-325.65000000000003-26Q-325.65000000000003-32 -324.1000000000001-37Q-322.55000000000007-42 -319.55000000000007-45.6Q-316.55000000000007-49.2 -312.20000000000005-51.2Q-307.8500000000001-53.2 -302.25000000000006-53.2L-302.25000000000006-53.2Q-297.75000000000006-53.2 -294.30000000000007-52Q-290.8500000000001-50.8 -289.15000000000003-49.7L-289.15000000000003-49.7ZM-244.65000000000003-53.1L-244.65000000000003-53.1Q-243.45000000000002-53.1 -241.90000000000003-52.95Q-240.35000000000002-52.8 -238.85000000000002-52.55Q-237.35000000000002-52.3 -236.10000000000002-52.05Q-234.85000000000002-51.8 -234.25000000000003-51.6L-234.25000000000003-51.6L-235.85000000000002-43.5Q-236.95000000000002-43.9 -239.50000000000003-44.45Q-242.05-45 -246.05-45L-246.05-45Q-248.65000000000003-45 -251.20000000000002-44.45Q-253.75000000000003-43.9 -254.55-43.7L-254.55-43.7L-254.55 0L-263.85 0L-263.85-49.8Q-260.55-51 -255.65000000000003-52.05Q-250.75000000000003-53.1 -244.65000000000003-53.1ZM-207.65000000000003-6.7L-207.65000000000003-6.7Q-204.35000000000002-6.7 -201.80000000000004-6.85Q-199.25000000000003-7 -197.55-7.4L-197.55-7.4L-197.55-22.9Q-198.55-23.4 -200.8-23.75Q-203.05000000000004-24.1 -206.25000000000003-24.1L-206.25000000000003-24.1Q-208.35000000000002-24.1 -210.70000000000002-23.8Q-213.05000000000004-23.5 -215.00000000000003-22.55Q-216.95000000000002-21.6 -218.25000000000003-19.95Q-219.55000000000004-18.3 -219.55000000000004-15.6L-219.55000000000004-15.6Q-219.55000000000004-10.6 -216.35000000000002-8.65Q-213.15000000000003-6.7 -207.65000000000003-6.7ZM-208.45000000000002-53.3L-208.45000000000002-53.3Q-202.85000000000002-53.3 -199.00000000000003-51.85Q-195.15000000000003-50.4 -192.8-47.75Q-190.45000000000005-45.1 -189.45000000000005-41.45Q-188.45000000000005-37.8 -188.45000000000005-33.4L-188.45000000000005-33.4L-188.45000000000005-0.9Q-189.65000000000003-0.7 -191.8-0.35Q-193.95000000000005 0 -196.65000000000003 0.3Q-199.35000000000002 0.6 -202.50000000000003 0.85Q-205.65000000000003 1.1 -208.75000000000003 1.1L-208.75000000000003 1.1Q-213.15000000000003 1.1 -216.85000000000002 0.2Q-220.55000000000004-0.7 -223.25000000000003-2.65Q-225.95000000000002-4.6 -227.45000000000002-7.8Q-228.95000000000002-11 -228.95000000000002-15.5L-228.95000000000002-15.5Q-228.95000000000002-19.8 -227.20000000000002-22.9Q-225.45000000000002-26 -222.45000000000002-27.9Q-219.45000000000002-29.8 -215.45000000000002-30.7Q-211.45000000000002-31.6 -207.05000000000004-31.6L-207.05000000000004-31.6Q-205.65000000000003-31.6 -204.15000000000003-31.45Q-202.65000000000003-31.3 -201.30000000000004-31.05Q-199.95000000000005-30.8 -198.95000000000005-30.6Q-197.95000000000005-30.4 -197.55-30.3L-197.55-30.3L-197.55-32.9Q-197.55-35.2 -198.05-37.45Q-198.55-39.7 -199.85000000000002-41.45Q-201.15000000000003-43.2 -203.40000000000003-44.25Q-205.65000000000003-45.3 -209.25000000000003-45.3L-209.25000000000003-45.3Q-213.85000000000002-45.3 -217.30000000000004-44.65Q-220.75000000000003-44 -222.45000000000002-43.3L-222.45000000000002-43.3L-223.55000000000004-51Q-221.75000000000003-51.8 -217.55000000000004-52.55Q-213.35000000000002-53.3 -208.45000000000002-53.3ZM-152.75-77.6L-152.75-77.6Q-148.65-77.6 -145.70000000000002-77Q-142.75-76.4 -141.55-75.9L-141.55-75.9L-143.25-67.9Q-144.45000000000002-68.5 -146.65-69.05Q-148.85000000000002-69.6 -152.05-69.6L-152.05-69.6Q-158.55-69.6 -161.15-66.05Q-163.75-62.5 -163.75-56.5L-163.75-56.5L-163.75-52L-143.75-52L-143.75-44.2L-163.75-44.2L-163.75 0L-173.05 0L-173.05-56.7Q-173.05-66.7 -168.15-72.15Q-163.25-77.6 -152.75-77.6ZM-125.75000000000001-68.1L-125.75000000000001-52L-106.05000000000001-52L-106.05000000000001-44.2L-125.75000000000001-44.2L-125.75000000000001-20.2Q-125.75000000000001-16.3 -125.15000000000002-13.75Q-124.55000000000001-11.2 -123.35000000000002-9.75Q-122.15000000000002-8.3 -120.35000000000002-7.7Q-118.55000000000001-7.1 -116.15000000000002-7.1L-116.15000000000002-7.1Q-111.95000000000002-7.1 -109.40000000000002-8.05Q-106.85000000000002-9 -105.85000000000002-9.4L-105.85000000000002-9.4L-104.05000000000001-1.7Q-105.45000000000002-1 -108.95000000000002 0.05Q-112.45000000000002 1.1 -116.95000000000002 1.1L-116.95000000000002 1.1Q-122.25000000000001 1.1 -125.70000000000002-0.25Q-129.15-1.6 -131.25000000000003-4.3Q-133.35000000000002-7 -134.20000000000002-10.95Q-135.05-14.9 -135.05-20.1L-135.05-20.1L-135.05-66.5L-125.75000000000001-68.1ZM-82.15-6.7L-82.15-6.7Q-76.45000000000002-6.7 -73.70000000000002-8.2Q-70.95000000000002-9.7 -70.95000000000002-13L-70.95000000000002-13Q-70.95000000000002-16.4 -73.65-18.4Q-76.35000000000002-20.4 -82.55000000000001-22.9L-82.55000000000001-22.9Q-85.55000000000001-24.1 -88.30000000000001-25.35Q-91.05000000000001-26.6 -93.05000000000001-28.3Q-95.05000000000001-30 -96.25000000000001-32.4Q-97.45000000000002-34.8 -97.45000000000002-38.3L-97.45000000000002-38.3Q-97.45000000000002-45.2 -92.35000000000001-49.25Q-87.25000000000001-53.3 -78.45000000000002-53.3L-78.45000000000002-53.3Q-76.25000000000001-53.3 -74.05000000000001-53.05Q-71.85000000000002-52.8 -69.95000000000002-52.45Q-68.05000000000001-52.1 -66.60000000000002-51.7Q-65.15-51.3 -64.35000000000002-51L-64.35000000000002-51L-66.05000000000001-43Q-67.55000000000001-43.8 -70.75000000000001-44.65Q-73.95000000000002-45.5 -78.45000000000002-45.5L-78.45000000000002-45.5Q-82.35000000000002-45.5 -85.25000000000001-43.95Q-88.15000000000002-42.4 -88.15000000000002-39.1L-88.15000000000002-39.1Q-88.15000000000002-37.4 -87.50000000000001-36.1Q-86.85000000000001-34.8 -85.50000000000001-33.75Q-84.15-32.7 -82.15-31.8Q-80.15-30.9 -77.35000000000002-29.9L-77.35000000000002-29.9Q-73.65-28.5 -70.75000000000001-27.15Q-67.85000000000002-25.8 -65.80000000000001-24Q-63.750000000000014-22.2 -62.65000000000001-19.65Q-61.55000000000001-17.1 -61.55000000000001-13.4L-61.55000000000001-13.4Q-61.55000000000001-6.2 -66.9-2.5Q-72.25000000000001 1.2 -82.15 1.2L-82.15 1.2Q-89.05000000000001 1.2 -92.95000000000002 0.05Q-96.85000000000001-1.1 -98.25000000000001-1.7L-98.25000000000001-1.7L-96.55000000000001-9.7Q-94.95000000000002-9.1 -91.45000000000002-7.9Q-87.95000000000002-6.7 -82.15-6.7ZM 86.14999999999999-77.6L 86.14999999999999-77.6Q 90.25-77.6  93.19999999999999-77Q 96.14999999999999-76.4  97.35-75.9L 97.35-75.9L 95.64999999999999-67.9Q 94.44999999999999-68.5  92.25-69.05Q 90.05-69.6  86.85-69.6L 86.85-69.6Q 80.35-69.6  77.75-66.05Q 75.14999999999999-62.5  75.14999999999999-56.5L 75.14999999999999-56.5L 75.14999999999999-52L 95.14999999999999-52L 95.14999999999999-44.2L 75.14999999999999-44.2L 75.14999999999999 0L 65.85 0L 65.85-56.7Q 65.85-66.7  70.75-72.15Q 75.64999999999999-77.6  86.14999999999999-77.6ZM 134.85 1.5L 134.85 1.5Q 127.54999999999998 1.5  121.54999999999998-0.9Q 115.54999999999998-3.3  111.24999999999999-7.9Q 106.94999999999999-12.5  104.6-19.25Q 102.24999999999999-26  102.24999999999999-34.7L 102.24999999999999-34.7Q 102.24999999999999-43.4  104.89999999999999-50.15Q 107.54999999999998-56.9  112.04999999999998-61.5Q 116.54999999999998-66.1  122.54999999999998-68.5Q 128.54999999999998-70.9  135.35-70.9L 135.35-70.9Q 139.64999999999998-70.9  143.1-70.3Q 146.54999999999998-69.7  149.1-68.9Q 151.64999999999998-68.1  153.25-67.3Q 154.85-66.5  155.45-66.1L 155.45-66.1L 152.64999999999998-58.1Q 151.75-58.7  150.04999999999998-59.4Q 148.35-60.1  146.2-60.8Q 144.04999999999998-61.5  141.5-61.95Q 138.95-62.4  136.35-62.4L 136.35-62.4Q 130.85-62.4  126.44999999999999-60.5Q 122.04999999999998-58.6  118.94999999999999-55Q 115.85-51.4  114.19999999999999-46.25Q 112.54999999999998-41.1  112.54999999999998-34.7L 112.54999999999998-34.7Q 112.54999999999998-28.5  113.99999999999999-23.4Q 115.44999999999999-18.3  118.35-14.65Q 121.24999999999999-11  125.6-9Q 129.95-7  135.75-7L 135.75-7Q 142.45-7  146.85-8.4Q 151.25-9.8  153.45-10.9L 153.45-10.9L 155.95-2.9Q 155.25-2.4  153.45-1.65Q 151.64999999999998-0.9  148.95-0.2Q 146.25 0.5  142.64999999999998 1Q 139.04999999999998 1.5  134.85 1.5ZM 210.85-26L 210.85-26Q 210.85-19.8  209.04999999999998-14.8Q 207.25-9.8  204-6.2Q 200.75-2.6  196.25-0.65Q 191.75 1.3  186.45 1.3L 186.45 1.3Q 181.14999999999998 1.3  176.64999999999998-0.65Q 172.14999999999998-2.6  168.89999999999998-6.2Q 165.64999999999998-9.8  163.85-14.8Q 162.04999999999998-19.8  162.04999999999998-26L 162.04999999999998-26Q 162.04999999999998-32.1  163.85-37.15Q 165.64999999999998-42.2  168.89999999999998-45.8Q 172.14999999999998-49.4  176.64999999999998-51.35Q 181.14999999999998-53.3  186.45-53.3L 186.45-53.3Q 191.75-53.3  196.25-51.35Q 200.75-49.4  204-45.8Q 207.25-42.2  209.04999999999998-37.15Q 210.85-32.1  210.85-26ZM 201.14999999999998-26L 201.14999999999998-26Q 201.14999999999998-34.8  197.2-39.95Q 193.25-45.1  186.45-45.1L 186.45-45.1Q 179.64999999999998-45.1  175.7-39.95Q 171.75-34.8  171.75-26L 171.75-26Q 171.75-17.2  175.7-12.05Q 179.64999999999998-6.9  186.45-6.9L 186.45-6.9Q 193.25-6.9  197.2-12.05Q 201.14999999999998-17.2  201.14999999999998-26ZM 257.55-8.1L 257.55-41Q 255.85-42.4  252.64999999999998-43.7Q 249.45-45  245.64999999999998-45L 245.64999999999998-45Q 241.64999999999998-45  238.79999999999998-43.55Q 235.95-42.1  234.14999999999998-39.55Q 232.35-37  231.54999999999998-33.5Q 230.75-30  230.75-26L 230.75-26Q 230.75-16.9  235.25-11.95Q 239.75-7  247.25-7L 247.25-7Q 251.04999999999998-7  253.6-7.35Q 256.15-7.7  257.55-8.1L 257.55-8.1ZM 257.55-49.7L 257.55-76L 266.84999999999997-77.6L 266.84999999999997-1.5Q 263.65-0.6  258.65 0.3Q 253.64999999999998 1.2  247.14999999999998 1.2L 247.14999999999998 1.2Q 241.14999999999998 1.2  236.35-0.7Q 231.54999999999998-2.6  228.14999999999998-6.1Q 224.75-9.6  222.89999999999998-14.65Q 221.04999999999998-19.7  221.04999999999998-26L 221.04999999999998-26Q 221.04999999999998-32  222.6-37Q 224.14999999999998-42  227.14999999999998-45.6Q 230.14999999999998-49.2  234.5-51.2Q 238.85-53.2  244.45-53.2L 244.45-53.2Q 248.95-53.2  252.39999999999998-52Q 255.85-50.8  257.55-49.7L 257.55-49.7ZM 279.95000000000005-25.9L 279.95000000000005-25.9Q 279.95000000000005-32.8  281.95000000000005-37.95Q 283.95000000000005-43.1  287.25-46.5Q 290.55-49.9  294.85-51.6Q 299.15000000000003-53.3  303.65000000000003-53.3L 303.65000000000003-53.3Q 314.15000000000003-53.3  319.75-46.75Q 325.35-40.2  325.35-26.8L 325.35-26.8Q 325.35-26.2  325.35-25.25Q 325.35-24.3  325.25-23.5L 325.25-23.5L 289.65000000000003-23.5Q 290.25-15.4  294.35-11.2Q 298.45000000000005-7  307.15000000000003-7L 307.15000000000003-7Q 312.05-7  315.40000000000003-7.85Q 318.75-8.7  320.45000000000005-9.5L 320.45000000000005-9.5L 321.75-1.7Q 320.05-0.8  315.8 0.2Q 311.55 1.2  306.15000000000003 1.2L 306.15000000000003 1.2Q 299.35 1.2  294.40000000000003-0.85Q 289.45000000000005-2.9  286.25-6.5Q 283.05-10.1  281.5-15.05Q 279.95000000000005-20  279.95000000000005-25.9ZM 289.85-31L 315.65000000000003-31Q 315.75-37.3  312.5-41.35Q 309.25-45.4  303.55-45.4L 303.55-45.4Q 300.35-45.4  297.90000000000003-44.15Q 295.45000000000005-42.9  293.75-40.9Q 292.05-38.9  291.1-36.3Q 290.15000000000003-33.7  289.85-31L 289.85-31Z"></path>
</svg>